<?xml version="1.0" encoding="iso-8859-1"?>
<!-- Generator: Adobe Illustrator 18.0.0, SVG Export Plug-In . SVG Version: 6.00 Build 0)  -->
<!DOCTYPE svg PUBLIC "-//W3C//DTD SVG 1.1//EN" "http://www.w3.org/Graphics/SVG/1.1/DTD/svg11.dtd">
<svg version="1.1" id="Capa_1" xmlns="http://www.w3.org/2000/svg" xmlns:xlink="http://www.w3.org/1999/xlink" x="0px" y="0px"
	 viewBox="0 0 512 512" style="enable-background:new 0 0 512 512;" xml:space="preserve">
<g>
	<path d="M480,16H32C14.327,16,0,30.326,0,48v416c0,17.672,14.327,32,32,32h448c17.674,0,32-14.328,32-32V48
		C512,30.326,497.674,16,480,16z M448,432H128V80h320V432z"/>
	<path d="M288,384c70.692,0,128-57.309,128-128s-57.308-128-128-128s-128,57.309-128,128S217.308,384,288,384z M288,224
		c17.674,0,32,14.326,32,32c0,17.672-14.326,32-32,32c-17.673,0-32-14.328-32-32C256,238.326,270.327,224,288,224z"/>
</g>
<g>
</g>
<g>
</g>
<g>
</g>
<g>
</g>
<g>
</g>
<g>
</g>
<g>
</g>
<g>
</g>
<g>
</g>
<g>
</g>
<g>
</g>
<g>
</g>
<g>
</g>
<g>
</g>
<g>
</g>
</svg>
