<?xml version="1.0" encoding="iso-8859-1"?>
<!-- Generator: Adobe Illustrator 18.0.0, SVG Export Plug-In . SVG Version: 6.00 Build 0)  -->
<!DOCTYPE svg PUBLIC "-//W3C//DTD SVG 1.1//EN" "http://www.w3.org/Graphics/SVG/1.1/DTD/svg11.dtd">
<svg version="1.1" id="Capa_1" xmlns="http://www.w3.org/2000/svg" xmlns:xlink="http://www.w3.org/1999/xlink" x="0px" y="0px"
	 viewBox="0 0 512 512" style="enable-background:new 0 0 512 512;" xml:space="preserve">
<path d="M480,96c0-52.938-43.066-96-96-96s-96,43.063-96,96c0,35.441,19.355,66.381,48,83.012V272c0,14.16,6.246,26.756,16,35.543
	V320c0,52.938-43.066,96-96,96s-96-43.063-96-96v-12.457c9.754-8.787,16-21.383,16-35.543v-92.988c28.645-16.631,48-47.57,48-83.012
	c0-52.938-43.066-96-96-96S32,43.063,32,96c0,35.441,19.355,66.381,48,83.012V272c0,14.16,6.246,26.756,16,35.543V480
	c0,17.672,14.328,32,32,32s32-14.328,32-32v-32.305C186.779,467.879,219.961,480,256,480c88.223,0,160-71.773,160-160v-12.457
	c9.754-8.787,16-21.383,16-35.543v-92.988C460.645,162.381,480,131.441,480,96z M128,64c17.645,0,32,14.352,32,32s-14.355,32-32,32
	s-32-14.352-32-32S110.355,64,128,64z M384,64c17.645,0,32,14.352,32,32s-14.355,32-32,32s-32-14.352-32-32S366.355,64,384,64z"/>
<g>
</g>
<g>
</g>
<g>
</g>
<g>
</g>
<g>
</g>
<g>
</g>
<g>
</g>
<g>
</g>
<g>
</g>
<g>
</g>
<g>
</g>
<g>
</g>
<g>
</g>
<g>
</g>
<g>
</g>
</svg>
