<?xml version="1.0" encoding="iso-8859-1"?>
<!-- Generator: Adobe Illustrator 18.0.0, SVG Export Plug-In . SVG Version: 6.00 Build 0)  -->
<!DOCTYPE svg PUBLIC "-//W3C//DTD SVG 1.1//EN" "http://www.w3.org/Graphics/SVG/1.1/DTD/svg11.dtd">
<svg version="1.1" id="Capa_1" xmlns="http://www.w3.org/2000/svg" xmlns:xlink="http://www.w3.org/1999/xlink" x="0px" y="0px"
	 viewBox="0 0 512 512" style="enable-background:new 0 0 512 512;" xml:space="preserve">
<path d="M480,0H368h-64h-96h-64H32C14.326,0,0,14.327,0,32v448c0,17.673,14.326,32,32,32h448c17.674,0,32-14.327,32-32V32
	C512,14.327,497.674,0,480,0z M304,272v176h-96V272c17.674,0,32-14.327,32-32V64h32v176C272,257.673,286.328,272,304,272z M64,64h48
	v176c0,17.673,14.328,32,32,32v176H64V64z M448,448h-80V272c17.674,0,32-14.327,32-32V64h48V448z"/>
<g>
</g>
<g>
</g>
<g>
</g>
<g>
</g>
<g>
</g>
<g>
</g>
<g>
</g>
<g>
</g>
<g>
</g>
<g>
</g>
<g>
</g>
<g>
</g>
<g>
</g>
<g>
</g>
<g>
</g>
</svg>
