<?xml version="1.0" encoding="iso-8859-1"?>
<!-- Generator: Adobe Illustrator 18.0.0, SVG Export Plug-In . SVG Version: 6.00 Build 0)  -->
<!DOCTYPE svg PUBLIC "-//W3C//DTD SVG 1.1//EN" "http://www.w3.org/Graphics/SVG/1.1/DTD/svg11.dtd">
<svg version="1.1" id="Capa_1" xmlns="http://www.w3.org/2000/svg" xmlns:xlink="http://www.w3.org/1999/xlink" x="0px" y="0px"
	 viewBox="0 0 512 512" style="enable-background:new 0 0 512 512;" xml:space="preserve">
<path d="M304,80h80V32c0-17.674-14.328-32-32-32H160c-17.672,0-32,14.326-32,32v48h80c8.836,0,16,7.164,16,16s-7.164,16-16,16h-80
	v64h80c8.836,0,16,7.164,16,16s-7.164,16-16,16h-80v64h80c8.836,0,16,7.164,16,16s-7.164,16-16,16h-80v48c0,17.672,14.328,32,32,32
	h32c0,17.672,14.328,32,32,32v64c0,17.672,14.328,32,32,32s32-14.328,32-32v-64c17.672,0,32-14.328,32-32h32
	c17.672,0,32-14.328,32-32v-48h-80c-8.836,0-16-7.164-16-16s7.164-16,16-16h80v-64h-80c-8.836,0-16-7.164-16-16s7.164-16,16-16h80
	v-64h-80c-8.836,0-16-7.164-16-16S295.164,80,304,80z"/>
<g>
</g>
<g>
</g>
<g>
</g>
<g>
</g>
<g>
</g>
<g>
</g>
<g>
</g>
<g>
</g>
<g>
</g>
<g>
</g>
<g>
</g>
<g>
</g>
<g>
</g>
<g>
</g>
<g>
</g>
</svg>
