<?xml version="1.0" encoding="iso-8859-1"?>
<!-- Generator: Adobe Illustrator 18.0.0, SVG Export Plug-In . SVG Version: 6.00 Build 0)  -->
<!DOCTYPE svg PUBLIC "-//W3C//DTD SVG 1.1//EN" "http://www.w3.org/Graphics/SVG/1.1/DTD/svg11.dtd">
<svg version="1.1" id="Capa_1" xmlns="http://www.w3.org/2000/svg" xmlns:xlink="http://www.w3.org/1999/xlink" x="0px" y="0px"
	 viewBox="0 0 512 512" style="enable-background:new 0 0 512 512;" xml:space="preserve">
<g>
	<polygon points="304,0 304,128 432,128 	"/>
	<path d="M272,0H112C94.328,0,80,14.326,80,32v448c0,17.672,14.328,32,32,32h288c17.672,0,32-14.328,32-32V160H272V0z M288,240h8h8
		h32v8v8l-48,16v110.172c0,23.316-15.824,44.684-38.746,48.961c-33.02,6.164-61.488-21.504-56.73-54.316
		c1.906-13.164,10.23-24.781,21.285-32.176C229.719,334,243.766,334.59,256,338.941V272v-32H288z"/>
</g>
<g>
</g>
<g>
</g>
<g>
</g>
<g>
</g>
<g>
</g>
<g>
</g>
<g>
</g>
<g>
</g>
<g>
</g>
<g>
</g>
<g>
</g>
<g>
</g>
<g>
</g>
<g>
</g>
<g>
</g>
</svg>
