<?xml version="1.0" encoding="iso-8859-1"?>
<!-- Generator: Adobe Illustrator 18.0.0, SVG Export Plug-In . SVG Version: 6.00 Build 0)  -->
<!DOCTYPE svg PUBLIC "-//W3C//DTD SVG 1.1//EN" "http://www.w3.org/Graphics/SVG/1.1/DTD/svg11.dtd">
<svg version="1.1" id="Capa_1" xmlns="http://www.w3.org/2000/svg" xmlns:xlink="http://www.w3.org/1999/xlink" x="0px" y="0px"
	 viewBox="0 0 512 512" style="enable-background:new 0 0 512 512;" xml:space="preserve">
<g>
	<path d="M64,96c-17.672,0-32,14.326-32,32v256c0,17.672,14.328,32,32,32s32-14.328,32-32V128C96,110.326,81.672,96,64,96z"/>
	<path d="M160,160c-17.672,0-32,14.326-32,32v128c0,17.672,14.328,32,32,32s32-14.328,32-32V192C192,174.326,177.672,160,160,160z"
		/>
	<path d="M256,0c-17.672,0-32,14.326-32,32v448c0,17.672,14.328,32,32,32s32-14.328,32-32V32C288,14.326,273.672,0,256,0z"/>
	<path d="M352,80c-17.672,0-32,14.326-32,32v288c0,17.672,14.328,32,32,32s32-14.328,32-32V112C384,94.326,369.672,80,352,80z"/>
	<path d="M448,160c-17.672,0-32,14.326-32,32v128c0,17.672,14.328,32,32,32s32-14.328,32-32V192C480,174.326,465.672,160,448,160z"
		/>
</g>
<g>
</g>
<g>
</g>
<g>
</g>
<g>
</g>
<g>
</g>
<g>
</g>
<g>
</g>
<g>
</g>
<g>
</g>
<g>
</g>
<g>
</g>
<g>
</g>
<g>
</g>
<g>
</g>
<g>
</g>
</svg>
