<?xml version="1.0" encoding="iso-8859-1"?>
<!-- Generator: Adobe Illustrator 18.0.0, SVG Export Plug-In . SVG Version: 6.00 Build 0)  -->
<!DOCTYPE svg PUBLIC "-//W3C//DTD SVG 1.1//EN" "http://www.w3.org/Graphics/SVG/1.1/DTD/svg11.dtd">
<svg version="1.1" id="Capa_1" xmlns="http://www.w3.org/2000/svg" xmlns:xlink="http://www.w3.org/1999/xlink" x="0px" y="0px"
	 viewBox="0 0 512 512" style="enable-background:new 0 0 512 512;" xml:space="preserve">
<g>
	<path d="M439.106,57.766c-12.268-12.695-32.589-13.055-45.287-0.789c-6.158,5.938-9.635,13.914-9.787,22.461
		s3.036,16.641,8.986,22.805c30.815,31.844,30.815,83.672-0.012,115.531c-5.939,6.148-9.127,14.242-8.975,22.789
		s3.63,16.523,9.76,22.438c5.993,5.805,13.901,9,22.267,9c8.639,0,17.035-3.555,23.036-9.758
		C493.633,205.867,493.633,114.133,439.106,57.766z"/>
	<path d="M127.967,79.438c-0.152-8.547-3.63-16.523-9.768-22.445C105.509,44.719,85.2,45.07,72.904,57.758
		c-54.539,56.375-54.539,148.109,0,204.484C78.906,268.445,87.302,272,95.941,272c8.365,0,16.273-3.195,22.239-8.977
		c6.158-5.938,9.635-13.914,9.787-22.461c0.152-8.547-3.036-16.641-8.986-22.805c-30.815-31.844-30.815-83.672,0.012-115.531
		C124.931,96.078,128.12,87.984,127.967,79.438z"/>
	<path d="M320,0c-17.676,0-32,14.328-32,32v208c0,17.648-14.352,32-32,32s-32-14.352-32-32V32c0-17.672-14.324-32-32-32
		s-32,14.328-32,32v208c0,41.703,27,77.18,64,90.398v98.059c-10,8.785-16.007,21.383-16.007,35.543c0,26.51,21.493,48,48.009,48
		s48.006-21.49,48.006-48c0-14.16-6.008-26.758-16.008-35.543v-98.059c37-13.219,64-48.695,64-90.398V32C352,14.328,337.676,0,320,0
		z"/>
</g>
<g>
</g>
<g>
</g>
<g>
</g>
<g>
</g>
<g>
</g>
<g>
</g>
<g>
</g>
<g>
</g>
<g>
</g>
<g>
</g>
<g>
</g>
<g>
</g>
<g>
</g>
<g>
</g>
<g>
</g>
</svg>
